<svg xmlns="http://www.w3.org/2000/svg" viewBox="0 0 4400 1024" width="4400" height="1024">
	<defs>
		<linearGradient id="grd1" gradientUnits="userSpaceOnUse"  x1="421.002" y1="396.558" x2="695.766" y2="627.114">
			<stop offset="0.495" stop-color="#89725b"  />
			<stop offset="1" stop-color="#574533"  />
		</linearGradient>
		<linearGradient id="grd2" gradientUnits="userSpaceOnUse"  x1="356.947" y1="443.878" x2="420.751" y2="558.985">
			<stop offset="0" stop-color="#b7ca79"  />
			<stop offset="1" stop-color="#677e52"  />
		</linearGradient>
		<linearGradient id="grd3" gradientUnits="userSpaceOnUse"  x1="799.11" y1="443.836" x2="866.563" y2="565.525">
			<stop offset="0" stop-color="#b7ca79"  />
			<stop offset="1" stop-color="#677e52"  />
		</linearGradient>
		<linearGradient id="grd4" gradientUnits="userSpaceOnUse"  x1="463.135" y1="144.237" x2="614.083" y2="416.554">
			<stop offset="0" stop-color="#b7ca79"  />
			<stop offset="1" stop-color="#677e52"  />
		</linearGradient>
	</defs>
	<style>
		tspan { white-space:pre }
		.shp0 { fill: #b7ca79 } 
		.shp1 { fill: url(#grd1) } 
		.shp2 { fill: url(#grd2) } 
		.shp3 { fill: url(#grd3) } 
		.shp4 { fill: url(#grd4) } 
	</style>
	<path id="ground" class="shp0" d="M135 659.58C135.04 660.35 140.3 669.73 146.71 680.41C153.12 691.09 165.41 709.22 174.02 720.69C182.64 732.16 196.56 749.07 204.94 758.27C213.33 767.47 229.46 782.94 240.79 792.67C252.13 802.39 268.99 815.62 278.26 822.04C287.53 828.49 303.14 838.44 312.92 844.19C322.7 849.92 338.74 858.35 348.51 862.9C358.29 867.47 375.79 874.7 387.39 878.98C398.99 883.25 420.06 889.65 434.22 893.21C448.39 896.77 469.69 901.2 481.53 903.01C498.07 905.56 513.94 906.31 549.91 906.22C588.45 906.12 601.05 905.39 621.1 902.09C634.49 899.9 655.57 895.48 667.93 892.26C680.3 889.06 700.53 882.67 712.9 878.06C725.26 873.45 745.93 864.4 758.8 857.96C771.69 851.51 793.17 839.07 806.57 830.3C819.96 821.54 838.92 807.69 848.72 799.54C858.52 791.39 873.99 777.12 883.12 767.81C892.24 758.51 905.84 743.32 913.32 734.05C920.79 724.77 931.96 709.6 938.12 700.33C944.28 691.05 952.42 677.77 956.16 670.82L963 658.17C321.26 658.17 134.96 658.81 135 659.58Z" />
	<path id="trunk path" class="shp1" d="M501.11 365.75C500.13 366.69 492.17 369.95 483.4 373.02C474.63 376.07 467.23 379.73 466.93 381.15C466.63 382.55 469.8 388.98 473.96 395.43C478.32 402.17 486.89 411.52 494.17 417.48C501.12 423.17 512.31 430.68 519 434.17C525.69 437.65 538.76 443.07 548.04 446.18C557.31 449.29 571 453.58 578.48 455.71C588.73 458.63 592.04 460.4 592.02 462.87C592 464.67 587.96 469.93 583.03 474.58C578.1 479.2 561.9 491.83 547 502.6C532.11 513.39 515.31 525.05 509.63 528.49C501.35 533.53 498.03 534.56 492.77 533.72C489.15 533.14 480.72 529.45 474.03 525.5L461.86 518.32C451.68 525.27 444.73 529.34 439.84 531.85C434.95 534.36 430.42 537.45 429.78 538.74C429.11 540.13 434.32 546.74 442.43 554.84L456.24 568.59C440.26 581.98 425.92 595.62 414.08 607.55C402.24 619.47 388.12 635.52 382.7 643.22C377.29 650.94 373.51 657.86 374.27 658.62C375.04 659.37 426.64 659.8 488.91 659.56L602.16 659.11C605.36 640.24 608.3 630.97 610.74 626.33C613.17 621.68 619.04 613.77 623.76 608.75C628.48 603.71 638.24 595.64 645.45 590.77C652.67 585.92 664.9 578.97 672.62 575.33C680.36 571.7 693 566.58 700.72 563.98C708.46 561.35 720.26 557.74 726.95 555.94C733.64 554.14 740.21 551.76 741.56 550.62C743.47 549.01 742.87 547.6 738.6 543.89C735.64 541.33 731.82 536.48 730.1 533.12C728.32 529.69 725.52 527.07 723.67 527.11C721.87 527.13 703.96 530.42 683.86 534.4C663.76 538.37 647.16 541.5 646.93 541.35C646.71 541.2 653.88 535.84 662.86 529.45C671.83 523.04 686.33 511.86 695.1 504.59C703.87 497.3 715.89 485.69 721.83 478.76C728.91 470.49 733.04 463.88 733.75 459.59C734.35 455.97 733.84 450.93 732.62 448.35C731.41 445.78 725.26 435.65 718.97 425.87C709.47 411.07 707.58 406.82 707.82 400.58C707.97 396.46 708.33 390.55 708.63 387.46C709.08 382.67 708.61 381.97 705.4 382.78C703.34 383.3 687.32 383.72 669.81 383.72C646.71 383.72 635.51 382.95 629.04 380.91C623.07 379.03 619.47 378.71 618.14 379.97C616.77 381.26 618.51 386.58 623.8 397.3C627.97 405.8 631.4 414.44 631.4 416.5C631.4 418.56 629.92 420.81 628.12 421.5C626.33 422.18 618.1 421.69 609.86 420.4C601.62 419.09 588.56 415.92 580.82 413.35C573.1 410.77 560.87 405.56 553.66 401.76C546.44 397.95 535.11 390.67 528.48 385.53C521.84 380.42 514.26 373.49 511.62 370.13C508.97 366.78 505.94 364.05 504.85 364.05C503.77 364.05 502.08 364.81 501.11 365.75Z" />
	<path id="Lbranch path" class="shp2" d="M313.86 446.42C307.67 447.24 297.13 449.68 290.44 451.82C283.73 453.95 274.25 458.26 269.36 461.39C264.47 464.52 257.77 470.87 254.47 475.48C249.82 481.98 246.36 484.58 239.01 487.04C233.8 488.78 225.75 492.43 221.12 495.17C216.48 497.88 210.76 503.02 208.42 506.56C206.08 510.1 204.19 515.31 204.2 518.13C204.24 520.96 205.52 525.82 207.07 528.91C208.61 532 213.46 536.98 217.84 539.96C222.23 542.96 232.12 547.55 239.86 550.17C247.57 552.77 261.49 555.68 270.77 556.58C280.04 557.5 295.22 557.55 304.49 556.71C313.76 555.87 325.98 553.82 331.65 552.16C338.81 550.06 351.1 548.99 371.93 548.65C397.22 548.24 404.53 547.44 418.77 543.46C428.04 540.88 439.84 536.64 445 534.08C450.15 531.49 458.04 525.27 462.51 520.25C466.99 515.21 471.94 508.17 473.49 504.55C475.14 500.71 476.04 494.38 475.65 489.28C475.18 483.23 473.55 479.02 470.29 475.51C467.72 472.74 461.39 468.34 456.24 465.73C451.09 463.13 440.13 459.76 431.88 458.2C422.5 456.46 412.53 455.84 405.19 456.56C395.28 457.55 390.97 456.87 377.08 452.21C365.24 448.26 355.75 446.46 342.89 445.8C333.12 445.3 320.04 445.58 313.86 446.42Z" />
	<path id="Rbranch path" class="shp3" d="M812.19 482.84C807.04 484.11 800.09 486.57 796.73 488.29C792.54 490.46 785.87 491.46 775.19 491.51C766.55 491.57 756.44 492.81 752.24 494.32C748.12 495.84 742.05 498.95 738.73 501.27C735.42 503.6 731.03 508.43 728.95 512.05C726.7 515.96 725.21 521.99 725.22 527.03C725.24 534.28 726.22 536.4 732.17 542.21C736 545.9 743.98 550.75 749.9 552.98C757.6 555.87 764.81 556.99 775.19 556.95C787.18 556.91 791.66 557.81 800.95 562.1C811.51 566.99 813.73 567.31 837.48 567.26C862.49 567.2 862.92 567.12 875.89 560.74C883.1 557.18 891.77 551.29 895.16 547.68C898.55 544.04 902.24 538.14 903.37 534.53C904.49 530.91 904.9 524.19 904.31 519.54C903.71 514.89 901.1 508.17 898.54 504.55C895.95 500.94 889.39 495.3 883.92 491.98C878.47 488.68 868.95 484.68 862.77 483.08C856.59 481.49 844.79 480.25 836.54 480.35C828.3 480.44 817.34 481.57 812.19 482.84Z" />
	<path id="TBranch path" class="shp4" d="M481.53 118.01C478.96 118.4 470.53 120.07 462.79 121.7C455.08 123.31 441.59 127.43 432.82 130.82C424.05 134.21 411.41 140.15 404.72 144.03C398.03 147.89 385.8 156.28 377.55 162.67C369.31 169.04 357.45 180.07 351.18 187.19C344.92 194.29 336.92 204.3 333.38 209.41C329.86 214.53 323.6 225.06 319.48 232.83L311.98 246.96C297.46 249.13 289.88 251.73 285.75 254.17C281.63 256.6 275.51 262.3 272.14 266.83C268.78 271.35 265.5 278.02 264.87 281.61C264.23 285.23 262.99 289.65 262.09 291.45C260.97 293.7 258.25 294.73 253.44 294.75C249.58 294.75 241.35 295.57 235.17 296.55C228.99 297.54 219.29 300.44 213.63 302.99C207.95 305.56 199.95 310.5 195.83 313.99C191.71 317.47 186.86 323.41 185.06 327.19C183.26 330.98 181.78 337.44 181.78 341.56C181.78 345.69 182.94 351.79 184.36 355.15C185.79 358.5 189.8 363.93 193.26 367.23C196.73 370.51 204.2 375.34 209.88 377.96C215.54 380.57 226.5 384.07 234.24 385.74C244.22 387.89 253.18 388.47 265.15 387.73C274.65 387.13 286.92 384.97 293.25 382.8C299.43 380.66 307.43 376.93 311.05 374.5C317.21 370.36 318 370.26 324.16 372.83C327.78 374.33 338.3 377.57 347.58 380.03C356.85 382.48 373.71 385.48 385.05 386.68C396.62 387.89 413.04 388.31 422.52 387.61C431.79 386.94 448.65 384.77 459.98 382.82C471.32 380.85 485.22 377.38 490.9 375.08C496.57 372.79 507.31 366.42 514.78 360.94C522.26 355.43 530.69 347.6 533.52 343.51C536.34 339.43 539.08 336.06 539.6 336.02C540.13 335.98 546.48 341.64 553.73 348.59C562.14 356.66 571.62 363.54 579.96 367.59C587.13 371.09 601.43 376.77 611.73 380.23C625.41 384.82 636.27 387.01 652.01 388.38C665.8 389.6 679.29 389.64 689.48 388.51C698.25 387.54 710.46 385.57 716.64 384.11C722.83 382.67 731.26 380.44 735.38 379.18C739.5 377.93 748.77 374.31 755.99 371.16L769.1 365.41C786.52 376.56 795.8 381.47 800.95 383.51C808.05 386.34 814.85 387.26 829.05 387.29C843.96 387.35 849.88 386.53 858.09 383.29C863.75 381.06 872.18 375.92 876.82 371.89C881.47 367.87 887.33 360.45 889.88 355.41C893.1 349.04 894.73 342.24 895.24 333.13C895.86 322.23 895.14 317.98 891.06 307.84L886.15 295.66C892.77 280.21 894.1 273.31 893.98 266.63C893.89 260.95 892.48 252.52 890.85 247.89C889.21 243.27 885.46 235.66 882.52 231.03C879.56 226.4 871.37 217.11 864.33 210.42C857.26 203.72 846.44 195.23 840.27 191.56C834.09 187.89 823.15 182.51 815.94 179.62C808.72 176.74 796.51 172.75 788.77 170.73C780.79 168.65 765.02 166.6 752.24 166C735.85 165.24 724.94 165.78 711.96 167.99C702.16 169.68 688.67 172.67 681.99 174.66L669.81 178.29C632.06 153.53 613.51 142.7 604.24 138.28C594.96 133.84 580.22 128.07 571.45 125.43C562.69 122.8 550.04 119.77 543.35 118.72C536.66 117.65 521.06 116.88 508.69 117.01C496.33 117.15 484.11 117.6 481.53 118.01Z" />
	<path id="Grow " fill="#89725b" aria-label="Grow"  d="M1403.42 423.89L1348.41 423.89Q1342.05 396.48 1317.36 385.58Q1303.56 379.59 1286.67 379.59Q1254.36 379.59 1233.48 404.1Q1212.78 428.43 1212.78 477.45Q1212.78 526.84 1235.29 547.36Q1257.81 567.87 1286.49 567.87Q1314.64 567.87 1332.61 551.71Q1350.59 535.37 1354.76 509.05L1292.85 509.05L1292.85 464.38L1404.33 464.38L1404.33 608L1367.29 608L1361.66 574.59Q1345.5 593.66 1332.61 601.46Q1310.46 615.08 1278.14 615.08Q1224.94 615.08 1190.99 578.22Q1155.58 541.18 1155.58 476.91Q1155.58 411.91 1191.35 372.69Q1227.12 333.47 1285.95 333.47Q1336.97 333.47 1367.83 359.44Q1398.88 385.22 1403.42 423.89ZM1285.77 333.47L1285.77 333.47ZM1561.02 405.37Q1562.47 405.37 1563.38 405.55Q1564.47 405.55 1567.92 405.74L1567.92 458.75Q1563.02 458.21 1559.21 458.03Q1555.39 457.84 1553.03 457.84Q1521.8 457.84 1511.09 478.18Q1505.1 489.62 1505.1 513.4L1505.1 608L1452.99 608L1452.99 410.09L1502.38 410.09L1502.38 444.59Q1514.36 424.8 1523.26 417.54Q1537.78 405.37 1561.02 405.37ZM1687.03 571.51Q1709.72 571.51 1721.89 555.35Q1734.05 539.19 1734.05 509.41Q1734.05 479.63 1721.89 463.65Q1709.72 447.5 1687.03 447.5Q1664.33 447.5 1651.99 463.65Q1639.82 479.63 1639.82 509.41Q1639.82 539.19 1651.99 555.35Q1664.33 571.51 1687.03 571.51ZM1788.34 509.41Q1788.34 552.99 1763.29 584.03Q1738.23 614.9 1687.21 614.9Q1636.19 614.9 1611.13 584.03Q1586.08 552.99 1586.08 509.41Q1586.08 466.56 1611.13 435.15Q1636.19 403.74 1687.21 403.74Q1738.23 403.74 1763.29 435.15Q1788.34 466.56 1788.34 509.41ZM1687.21 404.83L1687.21 404.83ZM1890.2 552.08L1918.71 410.09L1971.18 410.09L2001.32 552.62L2032.19 410.09L2086.11 410.09L2028.74 608L1975.54 608L1944.49 463.84L1913.08 608L1859.33 608L1803.78 410.09L1859.33 410.09L1890.2 552.08Z" />
	<path id="Your " fill="#89725b" aria-label="Your"  d="M2298.48 453.94L2351.68 337.37L2415.04 337.37L2325.53 504.41L2325.53 605L2269.61 605L2269.61 504.41L2177.01 337.37L2242.92 337.37L2298.48 453.94ZM2296.12 337.37L2296.12 337.37ZM2504.19 568.51Q2526.89 568.51 2539.05 552.35Q2551.22 536.19 2551.22 506.41Q2551.22 476.63 2539.05 460.65Q2526.89 444.5 2504.19 444.5Q2481.5 444.5 2469.15 460.65Q2456.98 476.63 2456.98 506.41Q2456.98 536.19 2469.15 552.35Q2481.5 568.51 2504.19 568.51ZM2605.51 506.41Q2605.51 549.99 2580.45 581.03Q2555.39 611.9 2504.37 611.9Q2453.35 611.9 2428.3 581.03Q2403.24 549.99 2403.24 506.41Q2403.24 463.56 2428.3 432.15Q2453.35 400.74 2504.37 400.74Q2555.39 400.74 2580.45 432.15Q2605.51 463.56 2605.51 506.41ZM2504.37 401.83L2504.37 401.83ZM2641.09 407.09L2694.11 407.09L2694.11 526.38Q2694.11 543.27 2698.1 551.8Q2705.19 566.87 2725.88 566.87Q2752.39 566.87 2762.2 545.45Q2767.28 533.83 2767.28 514.76L2767.28 407.09L2819.75 407.09L2819.75 605L2769.46 605L2769.46 577.04Q2768.73 577.95 2765.83 582.49Q2762.92 587.02 2758.93 590.47Q2746.76 601.37 2735.33 605.36Q2724.07 609.36 2708.82 609.36Q2664.88 609.36 2649.63 577.77Q2641.09 560.33 2641.09 526.38L2641.09 407.09ZM2730.42 401.83L2730.42 401.83ZM2977.17 402.37Q2978.62 402.37 2979.53 402.55Q2980.62 402.55 2984.07 402.74L2984.07 455.75Q2979.17 455.21 2975.36 455.03Q2971.54 454.84 2969.18 454.84Q2937.95 454.84 2927.24 475.18Q2921.25 486.62 2921.25 510.4L2921.25 605L2869.14 605L2869.14 407.09L2918.53 407.09L2918.53 441.59Q2930.51 421.8 2939.41 414.54Q2953.93 402.37 2977.17 402.37Z" />
	<path id="Words " fill="#89725b" aria-label="Words"  d="M3071.74 337.37L3131.11 337.37L3166.51 490.61L3174.14 533.28L3181.95 491.52L3212.09 337.37L3271.1 337.37L3302.87 490.61L3311.04 533.28L3319.21 492.25L3354.98 337.37L3411.81 337.37L3336.46 605L3283.08 605L3250.76 448.49L3241.32 396.74L3231.88 448.49L3199.56 605L3147.63 605L3071.74 337.37ZM3523.65 568.51Q3546.35 568.51 3558.52 552.35Q3570.68 536.19 3570.68 506.41Q3570.68 476.63 3558.52 460.65Q3546.35 444.5 3523.65 444.5Q3500.96 444.5 3488.61 460.65Q3476.45 476.63 3476.45 506.41Q3476.45 536.19 3488.61 552.35Q3500.96 568.51 3523.65 568.51ZM3624.97 506.41Q3624.97 549.99 3599.91 581.03Q3574.86 611.9 3523.84 611.9Q3472.82 611.9 3447.76 581.03Q3422.7 549.99 3422.7 506.41Q3422.7 463.56 3447.76 432.15Q3472.82 400.74 3523.84 400.74Q3574.86 400.74 3599.91 432.15Q3624.97 463.56 3624.97 506.41ZM3523.84 401.83L3523.84 401.83ZM3769.5 402.37Q3770.95 402.37 3771.86 402.55Q3772.95 402.55 3776.39 402.74L3776.39 455.75Q3771.49 455.21 3767.68 455.03Q3763.87 454.84 3761.51 454.84Q3730.28 454.84 3719.56 475.18Q3713.57 486.62 3713.57 510.4L3713.57 605L3661.46 605L3661.46 407.09L3710.85 407.09L3710.85 441.59Q3722.83 421.8 3731.73 414.54Q3746.25 402.37 3769.5 402.37ZM3879.71 402.37Q3897.68 402.37 3911.66 410.36Q3925.64 418.17 3934.36 432.15L3934.36 337.73L3986.83 337.73L3986.83 605L3936.54 605L3936.54 577.58Q3925.46 595.2 3911.3 603.18Q3897.14 611.17 3876.07 611.17Q3841.4 611.17 3817.61 583.21Q3794.01 555.07 3794.01 511.13Q3794.01 460.47 3817.25 431.42Q3840.67 402.37 3879.71 402.37ZM3890.96 567.6Q3912.93 567.6 3924.37 551.26Q3935.81 534.92 3935.81 508.95Q3935.81 472.64 3917.47 457.02Q3906.21 447.58 3891.33 447.58Q3868.63 447.58 3857.92 464.83Q3847.39 481.9 3847.39 507.32Q3847.39 534.73 3858.1 551.26Q3868.99 567.6 3890.96 567.6ZM4021.69 541.81L4074.16 541.81Q4075.8 555.61 4081.24 561.42Q4090.87 571.77 4116.83 571.77Q4132.08 571.77 4140.98 567.23Q4150.06 562.7 4150.06 553.62Q4150.06 544.9 4142.8 540.36Q4135.53 535.82 4088.87 524.75Q4055.28 516.4 4041.48 503.87Q4027.68 491.52 4027.68 468.28Q4027.68 440.86 4049.11 421.25Q4070.71 401.46 4109.75 401.46Q4146.79 401.46 4170.03 416.35Q4193.45 431.06 4196.9 467.37L4145.16 467.37Q4144.07 457.39 4139.53 451.58Q4130.99 441.05 4110.48 441.05Q4093.59 441.05 4086.33 446.31Q4079.25 451.58 4079.25 458.66Q4079.25 467.55 4086.87 471.55Q4094.5 475.72 4140.8 485.89Q4171.66 493.16 4187.1 507.86Q4202.35 522.75 4202.35 545.08Q4202.35 574.5 4180.38 593.2Q4158.59 611.72 4112.84 611.72Q4066.17 611.72 4043.84 592.11Q4021.69 572.32 4021.69 541.81ZM4113.74 401.83L4113.74 401.83Z" />
	<path id="Shape 1" class="shp0" d="M1161 658L4215 658L4215 677L1161 677L1161 658Z" />
</svg>