<svg xmlns="http://www.w3.org/2000/svg" viewBox="0 0 500 500" width="500" height="500">
	<defs>
		<linearGradient id="grd1" gradientUnits="userSpaceOnUse"  x1="181.692" y1="227.355" x2="328.356" y2="350.421">
			<stop offset="0.495" stop-color="#89725b"  />
			<stop offset="1" stop-color="#574533"  />
		</linearGradient>
		<linearGradient id="grd2" gradientUnits="userSpaceOnUse"  x1="147.501" y1="252.613" x2="181.558" y2="314.055">
			<stop offset="0" stop-color="#b7ca79"  />
			<stop offset="1" stop-color="#677e52"  />
		</linearGradient>
		<linearGradient id="grd3" gradientUnits="userSpaceOnUse"  x1="383.519" y1="252.591" x2="419.524" y2="317.546">
			<stop offset="0" stop-color="#b7ca79"  />
			<stop offset="1" stop-color="#677e52"  />
		</linearGradient>
		<linearGradient id="grd4" gradientUnits="userSpaceOnUse"  x1="204.182" y1="92.671" x2="284.755" y2="238.028">
			<stop offset="0" stop-color="#b7ca79"  />
			<stop offset="1" stop-color="#677e52"  />
		</linearGradient>
	</defs>
	<style>
		tspan { white-space:pre }
		.shp0 { fill: #b7ca79 } 
		.shp1 { fill: url(#grd1) } 
		.shp2 { fill: url(#grd2) } 
		.shp3 { fill: url(#grd3) } 
		.shp4 { fill: url(#grd4) } 
	</style>
	<path id="ground" class="shp0" d="M29.03 367.75C29.05 368.16 31.86 373.17 35.28 378.87C38.7 384.57 45.26 394.25 49.86 400.37C54.46 406.49 61.89 415.52 66.36 420.43C70.84 425.34 79.45 433.6 85.5 438.79C91.55 443.98 100.55 451.04 105.5 454.47C110.45 457.91 118.78 463.22 124 466.29C129.22 469.35 137.78 473.85 143 476.28C148.22 478.72 157.56 482.58 163.75 484.86C169.94 487.14 181.19 490.56 188.75 492.46C196.31 494.36 207.68 496.72 214 497.69C222.83 499.05 231.3 499.45 250.5 499.4C271.07 499.35 277.8 498.96 288.5 497.2C295.65 496.03 306.9 493.67 313.5 491.95C320.1 490.24 330.9 486.83 337.5 484.37C344.1 481.91 355.13 477.08 362 473.64C368.88 470.2 380.35 463.56 387.5 458.88C394.65 454.2 404.77 446.81 410 442.46C415.23 438.11 423.49 430.49 428.36 425.52C433.23 420.56 440.49 412.45 444.48 407.5C448.47 402.55 454.43 394.45 457.72 389.5C461.01 384.55 465.35 377.46 467.35 373.75L471 367C128.45 367 29.01 367.34 29.03 367.75Z" />
	<path id="trunk path" class="shp1" d="M224.45 210.91C223.93 211.41 219.68 213.15 215 214.79C210.32 216.42 206.37 218.37 206.21 219.13C206.05 219.88 207.74 223.31 209.96 226.75C212.29 230.35 216.86 235.34 220.75 238.52C224.46 241.56 230.43 245.57 234 247.43C237.57 249.29 244.55 252.18 249.5 253.84C254.45 255.5 261.76 257.79 265.75 258.93C271.22 260.49 272.99 261.43 272.98 262.75C272.97 263.71 270.81 266.52 268.18 269C265.55 271.47 256.9 278.21 248.95 283.96C241 289.72 232.03 295.94 229 297.78C224.58 300.47 222.81 301.02 220 300.57C218.07 300.26 213.57 298.29 210 296.18L203.5 292.35C198.07 296.06 194.36 298.23 191.75 299.57C189.14 300.91 186.72 302.56 186.38 303.25C186.02 303.99 188.8 307.52 193.13 311.84L200.5 319.18C191.97 326.33 184.32 333.61 178 339.98C171.68 346.34 164.14 354.91 161.25 359.02C158.36 363.14 156.34 366.83 156.75 367.24C157.16 367.64 184.7 367.87 217.94 367.74L278.39 367.5C280.1 357.43 281.67 352.48 282.97 350C284.27 347.52 287.4 343.3 289.92 340.62C292.44 337.93 297.65 333.62 301.5 331.02C305.35 328.43 311.88 324.72 316 322.78C320.13 320.84 326.88 318.11 331 316.72C335.13 315.32 341.43 313.39 345 312.43C348.57 311.47 352.08 310.2 352.8 309.59C353.82 308.73 353.5 307.98 351.22 306C349.64 304.63 347.6 302.04 346.68 300.25C345.73 298.42 344.24 297.02 343.25 297.04C342.29 297.05 332.73 298.81 322 300.93C311.27 303.05 302.41 304.72 302.29 304.64C302.17 304.56 306 301.7 310.79 298.29C315.58 294.87 323.32 288.9 328 285.02C332.68 281.13 339.1 274.93 342.27 271.23C346.05 266.82 348.25 263.29 348.63 261C348.95 259.07 348.68 256.38 348.03 255C347.38 253.63 344.1 248.22 340.74 243C335.67 235.1 334.66 232.83 334.79 229.5C334.87 227.3 335.06 224.15 335.22 222.5C335.46 219.94 335.21 219.57 333.5 220C332.4 220.28 323.85 220.5 314.5 220.5C302.17 220.5 296.19 220.09 292.74 219C289.55 218 287.63 217.83 286.92 218.5C286.19 219.19 287.12 222.03 289.94 227.75C292.17 232.29 294 236.9 294 238C294 239.1 293.21 240.3 292.25 240.67C291.29 241.03 286.9 240.77 282.5 240.08C278.1 239.38 271.13 237.69 267 236.32C262.88 234.94 256.35 232.16 252.5 230.13C248.65 228.1 242.6 224.21 239.06 221.47C235.52 218.74 231.47 215.04 230.06 213.25C228.65 211.46 227.03 210 226.45 210C225.87 210 224.97 210.41 224.45 210.91Z" />
	<path id="Lbranch path" class="shp2" d="M124.5 253.97C121.2 254.41 115.57 255.71 112 256.85C108.42 257.99 103.36 260.29 100.75 261.96C98.14 263.63 94.56 267.02 92.8 269.48C90.32 272.95 88.47 274.34 84.55 275.65C81.77 276.58 77.47 278.53 75 279.99C72.52 281.44 69.47 284.18 68.22 286.07C66.97 287.96 65.96 290.74 65.97 292.25C65.99 293.76 66.67 296.35 67.5 298C68.32 299.65 70.91 302.31 73.25 303.9C75.59 305.5 80.87 307.95 85 309.35C89.12 310.74 96.55 312.29 101.5 312.77C106.45 313.26 114.55 313.29 119.5 312.84C124.45 312.39 130.97 311.3 134 310.41C137.82 309.29 144.38 308.72 155.5 308.54C169 308.32 172.9 307.89 180.5 305.77C185.45 304.39 191.75 302.13 194.5 300.76C197.25 299.38 201.46 296.06 203.85 293.38C206.24 290.69 208.88 286.93 209.71 285C210.59 282.95 211.07 279.57 210.86 276.85C210.61 273.62 209.74 271.37 208 269.5C206.63 268.02 203.25 265.67 200.5 264.28C197.75 262.89 191.9 261.09 187.5 260.26C182.49 259.33 177.17 259 173.25 259.38C167.96 259.91 165.66 259.55 158.25 257.06C151.93 254.95 146.86 253.99 140 253.64C134.78 253.37 127.8 253.52 124.5 253.97Z" />
	<path id="Rbranch path" class="shp3" d="M390.5 273.41C387.75 274.09 384.04 275.4 382.25 276.32C380.01 277.48 376.45 278.01 370.75 278.04C366.14 278.07 360.74 278.73 358.5 279.54C356.3 280.35 353.06 282.01 351.29 283.25C349.52 284.49 347.18 287.07 346.07 289C344.87 291.09 344.07 294.31 344.08 297C344.09 300.87 344.61 302 347.79 305.1C349.83 307.07 354.09 309.66 357.25 310.85C361.36 312.39 365.21 312.99 370.75 312.97C377.15 312.95 379.54 313.43 384.5 315.72C390.14 318.33 391.32 318.5 404 318.47C417.35 318.44 417.58 318.4 424.5 314.99C428.35 313.09 432.98 309.95 434.79 308.02C436.6 306.08 438.57 302.93 439.17 301C439.77 299.07 439.99 295.48 439.67 293C439.35 290.52 437.96 286.93 436.59 285C435.21 283.07 431.71 280.06 428.79 278.29C425.88 276.53 420.8 274.39 417.5 273.54C414.2 272.69 407.9 272.03 403.5 272.08C399.1 272.13 393.25 272.73 390.5 273.41Z" />
	<path id="TBranch path" class="shp4" d="M214 78.67C212.63 78.88 208.13 79.77 204 80.64C199.88 81.5 192.68 83.7 188 85.51C183.32 87.32 176.57 90.49 173 92.56C169.43 94.62 162.9 99.1 158.5 102.51C154.1 105.91 147.77 111.8 144.42 115.6C141.08 119.39 136.81 124.73 134.92 127.46C133.04 130.19 129.7 135.81 127.5 139.96L123.5 147.5C115.75 148.66 111.7 150.05 109.5 151.35C107.3 152.65 104.03 155.69 102.23 158.11C100.44 160.52 98.69 164.08 98.35 166C98.01 167.93 97.35 170.29 96.87 171.25C96.27 172.45 94.82 173 92.25 173.01C90.19 173.01 85.8 173.45 82.5 173.97C79.2 174.5 74.02 176.05 71 177.41C67.97 178.78 63.7 181.42 61.5 183.28C59.3 185.14 56.71 188.31 55.75 190.33C54.79 192.35 54 195.8 54 198C54 200.2 54.62 203.46 55.38 205.25C56.14 207.04 58.28 209.94 60.13 211.7C61.98 213.45 65.97 216.03 69 217.43C72.02 218.82 77.87 220.69 82 221.58C87.33 222.73 92.11 223.04 98.5 222.64C103.57 222.32 110.12 221.17 113.5 220.01C116.8 218.87 121.07 216.88 123 215.58C126.29 213.37 126.71 213.32 130 214.69C131.93 215.49 137.55 217.22 142.5 218.53C147.45 219.84 156.45 221.44 162.5 222.08C168.68 222.73 177.44 222.95 182.5 222.58C187.45 222.22 196.45 221.06 202.5 220.02C208.55 218.97 215.97 217.12 219 215.89C222.03 214.67 227.76 211.27 231.75 208.34C235.74 205.4 240.24 201.22 241.75 199.04C243.26 196.86 244.72 195.06 245 195.04C245.28 195.02 248.67 198.04 252.54 201.75C257.03 206.06 262.09 209.73 266.54 211.89C270.37 213.76 278 216.79 283.5 218.64C290.8 221.09 296.6 222.26 305 222.99C312.36 223.64 319.56 223.66 325 223.06C329.68 222.54 336.2 221.49 339.5 220.71C342.8 219.94 347.3 218.75 349.5 218.08C351.7 217.41 356.65 215.48 360.5 213.8L367.5 210.73C376.8 216.68 381.75 219.3 384.5 220.39C388.29 221.9 391.92 222.39 399.5 222.41C407.46 222.44 410.62 222 415 220.27C418.02 219.08 422.52 216.34 425 214.19C427.48 212.04 430.61 208.08 431.97 205.39C433.69 201.99 434.56 198.36 434.83 193.5C435.16 187.68 434.78 185.41 432.6 180L429.98 173.5C433.51 165.25 434.22 161.57 434.16 158C434.11 154.97 433.36 150.47 432.49 148C431.61 145.53 429.61 141.47 428.04 139C426.46 136.53 422.09 131.57 418.33 128C414.56 124.42 408.78 119.89 405.49 117.93C402.19 115.97 396.35 113.1 392.5 111.56C388.65 110.02 382.13 107.89 378 106.81C373.74 105.7 365.32 104.61 358.5 104.29C349.75 103.88 343.93 104.17 337 105.35C331.77 106.25 324.57 107.85 321 108.91L314.5 110.85C294.35 97.63 284.45 91.85 279.5 89.49C274.55 87.12 266.68 84.04 262 82.63C257.32 81.23 250.57 79.61 247 79.05C243.43 78.48 235.1 78.07 228.5 78.14C221.9 78.21 215.38 78.45 214 78.67Z" />
</svg>